<?xml version="1.0" ?><svg width="32px" height="32px" viewBox="0 0 32 32" xmlns="http://www.w3.org/2000/svg"><title/><g data-name="Layer 20" id="Layer_20"><path d="M25.89,15.54A1,1,0,0,0,25,15L19.88,15,20,3.07a1,1,0,0,0-1-1L13.14,2a1.07,1.07,0,0,0-.71.29,1,1,0,0,0-.3.7L12,14.87l-5,0a1,1,0,0,0-.89.52,1,1,0,0,0,0,1L15,29.48a1,1,0,0,0,.82.44h0a1,1,0,0,0,.81-.42l9.13-12.92A1,1,0,0,0,25.89,15.54ZM14.12,4l3.87,0-.11,10.88-3.87,0Zm1.76,23.16-7-10.33,3.79,0a.94.94,0,0,0,.3.06l5.87.06h0a1.07,1.07,0,0,0,.3-.06l3.91,0Z"/></g></svg>