<?xml version="1.0" ?><svg width="32px" height="32px" viewBox="0 0 32 32" xmlns="http://www.w3.org/2000/svg"><title/><g data-name="Layer 7" id="Layer_7"><path d="M29,2H3A1,1,0,0,0,2,3V20.65A2.35,2.35,0,0,0,4.35,23H13v5H7.33a1,1,0,1,0,0,2H24.67a1,1,0,0,0,0-2H19V23h8.65A2.35,2.35,0,0,0,30,20.65V3A1,1,0,0,0,29,2ZM28,4V16.23A3.3,3.3,0,0,0,26.82,16H5.18A3.3,3.3,0,0,0,4,16.23V4ZM17,28H15V23h2Zm1-7H5.18A1.18,1.18,0,0,1,4,19.82v-.64A1.18,1.18,0,0,1,5.18,18H26.82A1.18,1.18,0,0,1,28,19.18v.64A1.18,1.18,0,0,1,26.82,21Z"/><path d="M9.23,11.66,15,8.19v3.67a1,1,0,0,0,.56.9,1,1,0,0,0,.44.1,1,1,0,0,0,.6-.2l6.25-4.74a1,1,0,0,0-.35-1.76L21,5.77a1,1,0,0,0-.92,1.71L17,9.85V6.42a1,1,0,0,0-.51-.87,1,1,0,0,0-1,0L8.2,9.94a1,1,0,0,0,1,1.72Z"/></g></svg>