<?xml version="1.0" ?><svg width="32px" height="32px" viewBox="0 0 32 32" xmlns="http://www.w3.org/2000/svg"><title/><g data-name="Layer 9" id="Layer_9"><path d="M29,1H3A1,1,0,0,0,2,2V22a1,1,0,0,0,1,1H29a1,1,0,0,0,1-1V2A1,1,0,0,0,29,1ZM28,3V15H4V3ZM4,21V17H28v4Z"/><path d="M19,18H13a1,1,0,0,0,0,2h6a1,1,0,0,0,0-2Z"/><path d="M20.76,24.23a1,1,0,0,0-.63-.23H11.88a1,1,0,0,0-.64.23l-4.87,4a1,1,0,0,0-.31,1.11A1,1,0,0,0,7,30H25a1,1,0,0,0,.94-.66,1,1,0,0,0-.31-1.11ZM9.79,28l2.44-2h7.54l2.44,2Z"/></g></svg>