<?xml version="1.0" ?><svg width="32px" height="32px" viewBox="0 0 32 32" xmlns="http://www.w3.org/2000/svg"><title/><g data-name="Layer 3" id="Layer_3"><path d="M30,12a1,1,0,0,0-1-1H3a1,1,0,0,0-1,1V29s0,0,0,0a.78.78,0,0,0,0,.22.94.94,0,0,0,0,.16c0,.06.07.1.1.15a1.09,1.09,0,0,0,.13.17l0,0a.61.61,0,0,0,.16.09l.12.08A1.21,1.21,0,0,0,3,30H29a1.21,1.21,0,0,0,.37-.07l.12-.08a.61.61,0,0,0,.16-.09l0,0a1.09,1.09,0,0,0,.13-.17s.07-.09.1-.15a.94.94,0,0,0,0-.16A.78.78,0,0,0,30,29s0,0,0,0ZM4,13.81l6.9,4.54-6.9,8ZM16,19.3,6.4,13H25.6Zm-3.41.16,2.86,1.88a1,1,0,0,0,1.1,0l2.86-1.88L26.81,28H5.19Zm8.51-1.11L28,13.81V26.32Z"/></g></svg>