<?xml version="1.0" ?><svg width="32px" height="32px" viewBox="0 0 32 32" xmlns="http://www.w3.org/2000/svg"><title/><g data-name="Layer 5" id="Layer_5"><path d="M30,11.92a.71.71,0,0,0,0-.2,1.07,1.07,0,0,0-.07-.19l0-.08-.07-.07a1.85,1.85,0,0,0-.14-.14.91.91,0,0,0-.16-.11l-.17-.07-.2,0L29,11H3l-.1,0-.2,0-.17.07a.91.91,0,0,0-.16.11,1.85,1.85,0,0,0-.14.14l-.07.07,0,.08a1.07,1.07,0,0,0-.07.19.71.71,0,0,0,0,.2A.24.24,0,0,0,2,12V29a1,1,0,0,0,1,1H29a1,1,0,0,0,1-1V12A.24.24,0,0,0,30,11.92ZM16,22a1,1,0,1,1-1,1A1,1,0,0,1,16,22ZM6.37,13H25.63L16,19.27ZM4,28V13.84l10.29,6.7a3,3,0,1,0,3.42,0L28,13.84V28Z"/></g></svg>