<?xml version="1.0" ?><svg width="32px" height="32px" viewBox="0 0 32 32" xmlns="http://www.w3.org/2000/svg"><defs><style>.cls-1{fill:none;stroke:#000;stroke-linecap:round;stroke-linejoin:round;stroke-width:2px;}</style></defs><title/><g data-name="Layer 6" id="Layer_6"><rect class="cls-1" height="7" width="3" x="16" y="10"/><rect class="cls-1" height="5" width="3" x="22" y="12"/></g><g data-name="Layer 16" id="Layer_16"><path d="M7,18H25a1,1,0,0,0,0-2H14V8a1,1,0,0,0-1-1H10A1,1,0,0,0,9,8v8H8V10a1,1,0,0,0-2,0v7A1,1,0,0,0,7,18Zm4-9h1v7H11Z"/><path d="M29,2H3A1,1,0,0,0,2,3v17.1A1,1,0,0,0,3,21H29a1,1,0,0,0,1-.95V3A1,1,0,0,0,29,2ZM28,19.1H4V3.9H28Z"/><polygon class="cls-1" points="29 29 3 29 3.46 23 28.54 23 29 29"/><line class="cls-1" x1="12" x2="20" y1="26" y2="26"/></g></svg>