<?xml version="1.0" ?><svg width="32px" height="32px" viewBox="0 0 32 32" xmlns="http://www.w3.org/2000/svg"><title/><g data-name="Layer 15" id="Layer_15"><path d="M29,2H3A1,1,0,0,0,2,3v17.1A1,1,0,0,0,3,21H29a1,1,0,0,0,1-.95V3A1,1,0,0,0,29,2ZM28,19.1H4V3.9H28Z"/><path d="M29,22H3a1,1,0,0,0-.94,1.08v3.29a3.36,3.36,0,0,0,3.09,3.57h21.7a3.36,3.36,0,0,0,3.09-3.57V23.08A1,1,0,0,0,29,22Zm-.94,4.4a1.31,1.31,0,0,1-1.21,1.39H5.15A1.31,1.31,0,0,1,3.94,26.4V24.21H28.06Z"/><path d="M13,26.94h6a.94.94,0,0,0,0-1.88H13a.94.94,0,1,0,0,1.88Z"/><path d="M7.66,16.66l7.4-7.4V16a.92.92,0,0,0,.58.86.89.89,0,0,0,1-.2l9-9a.93.93,0,0,0-1.32-1.32l-7.4,7.4V7a.94.94,0,0,0-1.6-.66l-9,9a.93.93,0,0,0,1.32,1.32Z"/></g></svg>