<?xml version="1.0" ?><svg width="32px" height="32px" viewBox="0 0 32 32" xmlns="http://www.w3.org/2000/svg"><title/><g data-name="Layer 14" id="Layer_14"><path d="M29,2H3A1,1,0,0,0,2,3v17.1A1,1,0,0,0,3,21H29a1,1,0,0,0,1-.95V3A1,1,0,0,0,29,2ZM28,3.9V15.3H4V3.9ZM4,19.1V17.2H28v1.9Z"/><path d="M29.88,22.53A1,1,0,0,0,29,22H3a1,1,0,0,0-.88.53,1,1,0,0,0,0,1l4,6A1,1,0,0,0,7,30H25a1,1,0,0,0,.83-.45l4-6A1,1,0,0,0,29.88,22.53ZM24.46,28H7.54L4.87,24H27.13Z"/><path d="M13,27h6a1,1,0,0,0,0-2H13a1,1,0,0,0,0,2Z"/></g></svg>